<svg xmlns="http://www.w3.org/2000/svg" width="130" height="40" fill="none" viewBox="0 0 130 40">
                  <path fill="#28C9C9" d="M23.237 8.727l3.38-3.453-.723-.738c-5.92-6.048-15.545-6.048-21.464 0-5.663 5.787-5.897 15.074-.7 21.17L.328 29.135l.722.738c5.92 6.048 15.545 6.048 21.464 0 5.687-5.787 5.92-15.074.723-21.146zM5.875 6.037c4.847-4.977 12.63-5.215 17.758-.739L21.7 7.275c-4.102-3.43-10.138-3.191-13.96.714-3.822 3.905-4.055 10.097-.7 14.264l-1.887 1.929C.771 18.919 1.004 10.99 5.875 6.037zm15.171 22.336c-4.87 4.977-12.631 5.215-17.782.714L5.2 27.111c4.101 3.429 10.137 3.19 13.96-.715 3.822-3.905 4.055-10.096.699-14.264l1.887-1.928c4.405 5.286 4.172 13.216-.699 18.169zM66.325 11.443h4.546v3.573c2.309-4.752 10.002-5.788 11.716-.036h.07c1.573-3.18 5.455-4.716 8.742-3.68 3.043.965 3.917 4.11 3.917 7.04v12.434h-4.721V19.268c0-2-.525-4.037-2.903-3.859-2.308.143-3.776 2.251-4.266 4.395-.175.75-.21 1.608-.21 2.502v8.504H78.46V19.268c0-2.143-.594-4.145-3.112-3.823-2.239.286-3.602 2.323-4.092 4.395-.175.715-.21 1.608-.21 2.466v8.504h-4.72V11.443zM129.236 26.703c-1.223 0-1.923-.536-1.923-2.645V3.87l-4.686 4.788v16.115c0 5.539 3.217 6.218 5.84 6.218.769 0 1.469-.108 1.469-.108v-4.216s-.35.036-.7.036zM117.067 14.845c-1.644-2.752-4.651-4.11-7.799-3.788-1.993.215-4.126 1.287-5.14 3.145v-2.716h-4.302v28.515l4.721-4.824v-4.86-1.68c1.574 2.359 4.721 3.038 7.309 2.466 6.819-1.536 8.498-10.827 5.211-16.258zm-7.939 12.363c-2.902 0-4.511-2.715-4.686-5.395-.14-2.252.455-4.896 2.518-6.075 1.714-.965 3.952-.714 5.316.715 3.007 3.108 1.923 10.755-3.148 10.755zM61.778 11.448h-4.721v19.367h4.72V11.448zM52.825 21.739c-.734-3.359-3.847-5.003-6.714-6.218-1.889-.821-5.63-1.822-5.525-4.502.104-2.68 3.147-3.359 5.245-3.001 1.19.214 2.343.679 3.357 1.357l3.148-3.215c-2.833-2.788-7.764-3.467-11.33-2.144-3.848 1.429-6.505 5.824-4.722 9.898 1.294 3.001 4.651 4.252 7.379 5.467 2.098.929 5.805 2.572 4.126 5.61-1.189 2.18-4.231 1.93-6.19 1.215-1.083-.394-2.168-1.001-3.112-1.716l-3.147 3.216c2.762 2.859 7.274 4.038 11.05 3.323 4.302-.786 7.414-4.788 6.435-9.29z"></path>
                </svg>
